<svg id="Capa_1" enable-background="new 0 0 512 512" height="512" viewBox="0 0 512 512" width="512" xmlns="http://www.w3.org/2000/svg" xmlns:xlink="http://www.w3.org/1999/xlink"><linearGradient id="SVGID_1_" gradientUnits="userSpaceOnUse" x1="256" x2="256" y1="512" y2="0"><stop offset="0" stop-color="#ffc8d1"/><stop offset="1" stop-color="#fff6f7"/></linearGradient><linearGradient id="SVGID_2_" gradientUnits="userSpaceOnUse" x1="256" x2="256" y1="105" y2="407"><stop offset="0" stop-color="#fd3a84"/><stop offset="1" stop-color="#ffa68d"/></linearGradient><g><g><circle cx="256" cy="256" fill="url(#SVGID_1_)" r="256"/></g><g><g><path d="m212.78 361.602c-30.021.015-38.579-26.118-40.053-27.897-.414-.095 1.498.35-4.038-.927l-19.199 34.343c-1.588 2.846-1.493 6.325.243 9.076 1.735 2.759 4.894 4.295 8.087 4.13l26.066-1.675 11.566 23.402c1.467 2.959 4.443 4.859 7.74 4.946h.226c3.21 0 6.187-1.735 7.757-4.547l21.363-38.221c-5.055-3.318-4.122-3.053-6.256-4.739-1.862.404-6.047 2.109-13.502 2.109zm130.284-28.759c-5.201 1.177-3.401.773-3.791.862-1.475 1.779-10.039 27.888-40.088 27.888-5.379 0-6.981-.696-13.476-2.1-1.902 1.507-1.484 1.66-6.455 4.882l21.284 38.078c1.571 2.812 4.547 4.547 7.757 4.547h.226c3.297-.087 6.273-1.987 7.74-4.946l11.575-23.402 26.057 1.675c3.228.191 6.36-1.362 8.087-4.13 1.735-2.751 1.831-6.23.243-9.076zm-87.064-165.746c-34.292 0-62.197 27.905-62.197 62.197s27.906 62.197 62.197 62.197c34.292 0 62.197-27.905 62.197-62.197s-27.905-62.197-62.197-62.197zm-26.656 26.658c4.907 0 8.885 3.977 8.885 8.885 0 4.907-3.978 8.885-8.885 8.885s-8.885-3.979-8.885-8.885c0-4.907 3.978-8.885 8.885-8.885zm7.809 66.959c-3.471 3.471-9.094 3.471-12.564 0-3.471-3.471-3.471-9.094 0-12.564l50.258-50.266c3.471-3.471 9.094-3.471 12.564 0 3.471 3.471 3.471 9.094 0 12.564zm45.503 4.123c-4.907 0-8.885-3.978-8.885-8.885 0-4.908 3.978-8.885 8.885-8.885s8.885 3.978 8.885 8.885-3.978 8.885-8.885 8.885zm88.566-32.167c-1.119-2.109-1.119-4.642 0-6.751l3.731-7.046c5.744-10.846 2.62-24.521-7.254-31.792l-6.43-4.738c-1.917-1.423-3.011-3.696-2.924-6.083l.304-7.966c.469-12.269-8.269-23.237-20.339-25.502l-7.827-1.475c-2.351-.443-4.321-2.013-5.275-4.208l-3.185-7.315c-4.972-11.436-17.389-17.363-29.389-14.152l-7.705 2.065c-2.343.616-4.781.061-6.577-1.501l-6.039-5.206c-9.302-8-23.324-8-32.626 0l-6.031 5.206c-1.805 1.562-4.269 2.117-6.594 1.501l-7.697-2.065c-12.026-3.21-24.4 2.716-29.389 14.152l-3.185 7.315c-.954 2.195-2.924 3.766-5.267 4.208l-7.835 1.475c-12.07 2.265-20.808 13.232-20.339 25.502l.304 7.957c.087 2.395-1.007 4.668-2.933 6.091l-6.412 4.729c-9.883 7.28-13.007 20.955-7.263 31.801l3.731 7.046c1.119 2.108 1.119 4.642 0 6.751l-3.731 7.054c-5.744 10.846-2.621 24.521 7.263 31.801l6.404 4.72c1.935 1.423 3.028 3.697 2.942 6.083l-.304 7.974c-.469 12.261 8.269 23.229 20.322 25.493l7.861 1.492c2.334.434 4.304 2.004 5.258 4.2l3.185 7.315c4.998 11.436 17.354 17.397 29.398 14.152l7.688-2.074c2.282-.59 4.781-.078 6.586 1.501l6.039 5.206c4.651 4 10.482 6.004 16.313 6.004s11.662-2.004 16.313-6.004l6.031-5.206c1.796-1.553 4.243-2.135 6.586-1.501l7.705 2.074c11.974 3.219 24.4-2.716 29.389-14.152l3.185-7.315c.954-2.195 2.924-3.766 5.284-4.208l7.818-1.484c12.07-2.265 20.807-13.232 20.339-25.493l-.304-7.966c-.087-2.395 1.007-4.668 2.924-6.083l6.421-4.729c9.883-7.28 13.007-20.955 7.263-31.801zm-115.222 76.592c-44.097 0-79.968-35.871-79.968-79.968s35.871-79.968 79.968-79.968 79.968 35.871 79.968 79.968-35.871 79.968-79.968 79.968z" fill="url(#SVGID_2_)"/></g></g></g></svg>