<svg id="Capa_1" enable-background="new 0 0 512 512" height="512" viewBox="0 0 512 512" width="512" xmlns="http://www.w3.org/2000/svg" xmlns:xlink="http://www.w3.org/1999/xlink"><linearGradient id="SVGID_1_" gradientUnits="userSpaceOnUse" x1="256" x2="256" y1="512" y2="0"><stop offset="0" stop-color="#ffbef9"/><stop offset="1" stop-color="#fff1ff"/></linearGradient><linearGradient id="SVGID_2_" gradientUnits="userSpaceOnUse" x1="256" x2="256" y1="105" y2="407"><stop offset="0" stop-color="#a93aff"/><stop offset="1" stop-color="#ff81ff"/></linearGradient><g><g><circle cx="256" cy="256" fill="url(#SVGID_1_)" r="256"/></g><g><g><path d="m176.059 140.5h88.823c4.905 0 8.882-3.974 8.882-8.875v-8.875c0-9.804-7.953-17.75-17.765-17.75h-71.059c-9.812 0-17.765 7.946-17.765 17.75v8.875c.002 4.901 3.979 8.875 8.884 8.875zm212.717 6.318c-2.411-7.246-14.434-7.246-16.845 0l-15.657 46.932h48.159zm-35.07 64.682v133.375c0 14.682 11.953 26.625 26.647 26.625s26.647-11.943 26.647-26.625v-133.375zm-195.412 9.126h17.765v-17.75h-17.765zm0 70.999h17.765v-17.75h-17.765zm168.765-168.624h-35.529v8.624c0 14.682-11.953 26.625-26.647 26.625h-88.823c-14.694 0-26.647-11.943-26.647-26.625v-8.624h-35.529c-4.91 0-8.882 3.97-8.882 8.875v266.249c0 4.905 3.973 8.875 8.882 8.875h213.177c4.91 0 8.882-3.97 8.882-8.875v-266.249c-.002-4.905-3.975-8.875-8.884-8.875zm-71.059 62.125h17.765c4.91 0 8.882 3.97 8.882 8.875s-3.973 8.875-8.882 8.875h-17.765c-4.91 0-8.882-3.97-8.882-8.875s3.972-8.875 8.882-8.875zm-35.529.002c4.905 0 8.882 3.973 8.882 8.875 0 4.901-3.977 8.875-8.882 8.875s-8.882-3.974-8.882-8.875c-.001-4.902 3.976-8.875 8.882-8.875zm-26.648 186.372c0 4.906-3.973 8.875-8.882 8.875h-35.529c-4.91 0-8.882-3.969-8.882-8.875v-35.5c0-4.906 3.973-8.875 8.882-8.875h35.529c4.91 0 8.882 3.969 8.882 8.875zm0-71c0 4.905-3.973 8.875-8.882 8.875h-35.529c-4.91 0-8.882-3.97-8.882-8.875v-35.5c0-4.905 3.973-8.875 8.882-8.875h35.529c4.91 0 8.882 3.97 8.882 8.875zm0-70.999c0 4.905-3.973 8.875-8.882 8.875h-35.529c-4.91 0-8.882-3.97-8.882-8.875v-35.5c0-4.905 3.973-8.875 8.882-8.875h35.529c4.91 0 8.882 3.97 8.882 8.875zm97.706 150.874h-71.059c-4.91 0-8.882-3.969-8.882-8.875 0-4.905 3.973-8.875 8.882-8.875h71.059c4.91 0 8.882 3.97 8.882 8.875.001 4.906-3.972 8.875-8.882 8.875zm-79.941-44.373c0-4.902 3.977-8.875 8.882-8.875s8.882 3.973 8.882 8.875c0 4.901-3.977 8.875-8.882 8.875s-8.882-3.973-8.882-8.875zm35.53-.002c0-4.906 3.973-8.875 8.882-8.875h17.765c4.91 0 8.882 3.969 8.882 8.875 0 4.905-3.973 8.875-8.882 8.875h-17.765c-4.91 0-8.882-3.969-8.882-8.875zm44.411-26.625h-71.059c-4.91 0-8.882-3.97-8.882-8.875 0-4.906 3.973-8.875 8.882-8.875h71.059c4.91 0 8.882 3.969 8.882 8.875.001 4.906-3.972 8.875-8.882 8.875zm-79.941-44.372c0-4.902 3.977-8.875 8.882-8.875s8.882 3.973 8.882 8.875c0 4.901-3.977 8.875-8.882 8.875s-8.882-3.974-8.882-8.875zm35.53-.003c0-4.905 3.973-8.875 8.882-8.875h17.765c4.91 0 8.882 3.97 8.882 8.875 0 4.906-3.973 8.875-8.882 8.875h-17.765c-4.91 0-8.882-3.969-8.882-8.875zm44.411-26.624h-71.059c-4.91 0-8.882-3.97-8.882-8.875 0-4.906 3.973-8.875 8.882-8.875h71.059c4.91 0 8.882 3.969 8.882 8.875.001 4.905-3.972 8.875-8.882 8.875zm-133.235 124.249h17.765v-17.75h-17.765z" fill="url(#SVGID_2_)"/></g></g></g></svg>