<svg id="Capa_1" enable-background="new 0 0 512 512" height="512" viewBox="0 0 512 512" width="512" xmlns="http://www.w3.org/2000/svg" xmlns:xlink="http://www.w3.org/1999/xlink"><linearGradient id="SVGID_1_" gradientUnits="userSpaceOnUse" x1="256" x2="256" y1="512" y2="0"><stop offset="0" stop-color="#c3ffe8"/><stop offset=".9973" stop-color="#f0fff4"/></linearGradient><linearGradient id="SVGID_2_" gradientUnits="userSpaceOnUse" x1="256" x2="256" y1="398" y2="114"><stop offset="0" stop-color="#9cffac"/><stop offset="1" stop-color="#00b59c"/></linearGradient><g><g><circle cx="256" cy="256" fill="url(#SVGID_1_)" r="256"/></g><g><g><path d="m220.471 335.875c-9.036 0-17.431-2.742-24.453-7.393l-12.61 12.6c10.381 7.77 23.125 12.543 37.063 12.543 7.087 0 14.035-1.257 20.749-3.744l-14.529-14.517c-2.152.338-4.208.511-6.22.511zm-44.412-44.375c0-13.859 6.696-26.954 17.765-35.301v-20.575c-21.382 10.114-35.529 31.687-35.529 55.876 0 13.926 4.777 26.66 12.554 37.032l12.61-12.6c-4.656-7.016-7.4-15.403-7.4-24.432zm144.603-177.5h-206.78c-4.91 0-8.882 3.969-8.882 8.875v44.375h197.893zm-171.25 35.5c-4.905 0-8.882-3.974-8.882-8.875s3.977-8.875 8.882-8.875 8.882 3.974 8.882 8.875-3.977 8.875-8.882 8.875zm35.529 0c-4.905 0-8.882-3.974-8.882-8.875s3.977-8.875 8.882-8.875 8.882 3.974 8.882 8.875-3.977 8.875-8.882 8.875zm35.53 0c-4.905 0-8.882-3.974-8.882-8.875s3.977-8.875 8.882-8.875 8.882 3.974 8.882 8.875-3.977 8.875-8.882 8.875zm26.647 86.124v20.575c11.068 8.346 17.765 21.442 17.765 35.301 0 2.011-.173 4.065-.512 6.214l14.529 14.517c2.489-6.708 3.747-13.651 3.747-20.731 0-24.181-14.147-45.762-35.529-55.876zm151-121.624h-58.736l-21.665 64.933c-1.206 3.623-4.597 6.067-8.423 6.067h-204.294v204.125c0 4.906 3.973 8.875 8.882 8.875h284.235c4.91 0 8.882-3.969 8.882-8.875v-266.25c.001-4.906-3.972-8.875-8.881-8.875zm-137.243 246.099c-12.69 7.48-26.283 11.276-40.404 11.276-44.395 0-79.941-36.187-79.941-79.875 0-36.254 24.652-67.949 59.947-77.076 5.578-1.448 11.112 2.746 11.112 8.589v37.927c0 3.155-1.683 6.076-4.406 7.67-8.362 4.871-13.358 13.425-13.358 22.89 0 14.657 11.934 26.625 26.647 26.625 2.021 0 4.172-.329 6.783-1.023 3.079-.832 6.341.052 8.579 2.297l26.803 26.781c4.108 4.106 3.223 10.971-1.762 13.919zm28.252-28.228c-2.982 5.034-9.874 5.813-13.931 1.759l-26.803-26.781c-2.247-2.245-3.123-5.512-2.299-8.572.694-2.609 1.024-4.758 1.024-6.778 0-9.464-4.996-18.019-13.358-22.89-2.724-1.595-4.406-4.516-4.406-7.67v-37.927c0-5.84 5.545-10.052 11.112-8.589 35.295 9.126 59.947 40.822 59.947 77.076-.001 14.111-3.801 27.692-11.286 40.372zm73.461-13.746h-35.529c-4.91 0-8.882-3.969-8.882-8.875s3.973-8.875 8.882-8.875h35.529c4.91 0 8.882 3.969 8.882 8.875s-3.972 8.875-8.882 8.875zm0-35.5h-35.529c-4.91 0-8.882-3.969-8.882-8.875s3.973-8.875 8.882-8.875h35.529c4.91 0 8.882 3.969 8.882 8.875s-3.972 8.875-8.882 8.875zm0-35.5h-35.529c-4.91 0-8.882-3.969-8.882-8.875s3.973-8.875 8.882-8.875h35.529c4.91 0 8.882 3.969 8.882 8.875s-3.972 8.875-8.882 8.875z" fill="url(#SVGID_2_)"/></g></g></g></svg>