<svg id="Capa_1" enable-background="new 0 0 512 512" height="512" viewBox="0 0 512 512" width="512" xmlns="http://www.w3.org/2000/svg" xmlns:xlink="http://www.w3.org/1999/xlink"><linearGradient id="SVGID_1_" gradientUnits="userSpaceOnUse" x1="256" x2="256" y1="512" y2="0"><stop offset="0" stop-color="#addcff"/><stop offset=".5028" stop-color="#eaf6ff"/><stop offset="1" stop-color="#eaf6ff"/></linearGradient><linearGradient id="SVGID_2_" gradientUnits="userSpaceOnUse" x1="256" x2="256" y1="407" y2="105"><stop offset="0" stop-color="#00c0ff"/><stop offset="1" stop-color="#5558ff"/></linearGradient><g><g><circle cx="256" cy="256" fill="url(#SVGID_1_)" r="256"/></g><g><g><path d="m320.661 105h-206.779c-4.91 0-8.882 3.973-8.882 8.882v44.412h197.893zm-171.249 35.529c-4.905 0-8.882-3.977-8.882-8.882 0-4.906 3.977-8.882 8.882-8.882s8.882 3.976 8.882 8.882c0 4.905-3.977 8.882-8.882 8.882zm35.529 0c-4.905 0-8.882-3.977-8.882-8.882 0-4.906 3.977-8.882 8.882-8.882s8.882 3.976 8.882 8.882c.001 4.905-3.977 8.882-8.882 8.882zm35.53 0c-4.905 0-8.882-3.977-8.882-8.882 0-4.906 3.977-8.882 8.882-8.882s8.882 3.976 8.882 8.882c0 4.905-3.977 8.882-8.882 8.882zm177.647-35.529h-58.738l-21.664 64.987c-1.206 3.626-4.597 6.072-8.423 6.072h-204.293v168.764c0 4.91 3.973 8.883 8.882 8.883h115.471v-4.911c-30.949-11.036-53.294-40.337-53.294-75.031 0-44.082 35.859-79.941 79.941-79.941s79.941 35.859 79.941 79.941c0 34.693-22.345 63.995-53.294 75.031v4.911h115.471c4.91 0 8.882-3.973 8.882-8.883v-230.941c0-4.909-3.973-8.882-8.882-8.882zm-79.942 168.765c0-34.28-27.896-62.177-62.176-62.177s-62.176 27.896-62.176 62.177 27.896 62.176 62.176 62.176 62.176-27.896 62.176-62.176zm-71.058 79.043v45.31c0 4.91 3.973 8.882 8.882 8.882s8.882-3.973 8.882-8.882v-45.31c-2.955.333-5.841.898-8.882.898s-5.928-.565-8.882-.898z" fill="url(#SVGID_2_)"/></g></g></g></svg>